<?xml version="1.0" encoding="UTF-8" standalone="no"?>
<!-- Created with Inkscape (http://www.inkscape.org/) -->
<svg xmlns:dc="http://purl.org/dc/elements/1.1/" xmlns:cc="http://creativecommons.org/ns#" xmlns:rdf="http://www.w3.org/1999/02/22-rdf-syntax-ns#" xmlns:svg="http://www.w3.org/2000/svg" xmlns="http://www.w3.org/2000/svg" xmlns:sodipodi="http://sodipodi.sourceforge.net/DTD/sodipodi-0.dtd" xmlns:inkscape="http://www.inkscape.org/namespaces/inkscape" id="svg2" sodipodi:version="0.32" inkscape:version="0.46" width="235" height="151.25" xml:space="preserve" sodipodi:docname="ESISARcmjn.svg" inkscape:output_extension="org.inkscape.output.svg.inkscape"><metadata id="metadata7"><rdf:RDF><cc:Work rdf:about=""><dc:format>image/svg+xml</dc:format><dc:type rdf:resource="http://purl.org/dc/dcmitype/StillImage"/></cc:Work></rdf:RDF></metadata><defs id="defs5"><inkscape:perspective sodipodi:type="inkscape:persp3d" inkscape:vp_x="0 : 526.18109 : 1" inkscape:vp_y="0 : 1000 : 0" inkscape:vp_z="744.09448 : 526.18109 : 1" inkscape:persp3d-origin="372.04724 : 350.78739 : 1" id="perspective9"/><clipPath clipPathUnits="userSpaceOnUse" id="clipPath19"><path d="M 0,1200.25 L 0,0 L 1878.76,0 L 1878.76,1200.25 L 0,1200.25 z" id="path21"/></clipPath></defs><sodipodi:namedview inkscape:window-height="726" inkscape:window-width="645" inkscape:pageshadow="2" inkscape:pageopacity="0.0" guidetolerance="10.0" gridtolerance="10.0" objecttolerance="10.0" borderopacity="1.0" bordercolor="#666666" pagecolor="#ffffff" id="base" showgrid="false" inkscape:zoom="2.3702128" inkscape:cx="117.5" inkscape:cy="75.625" inkscape:window-x="369" inkscape:window-y="25" inkscape:current-layer="g11"/><g id="g11" inkscape:groupmode="layer" inkscape:label="ESISARcmjn" transform="matrix(1.25,0,0,-1.25,0,151.25)"><g id="g13" transform="scale(0.1,0.1)"><g id="g15"><g id="g17" clip-path="url(#clipPath19)"><path d="M 1487.35,666.535 C 1499.19,538.27 1494.89,408.949 1474.55,282.164 L 1545.32,270.809 C 1566.61,403.52 1571.13,538.863 1558.73,673.121 L 1487.35,666.535" style="fill:#04a1e6;fill-opacity:1;fill-rule:nonzero;stroke:none" id="path23"/><path d="M 1402.08,1050.69 C 1421.65,996.297 1438.35,940.055 1451.76,883.535 L 1521.5,900.07 C 1507.47,959.18 1490,1018.02 1469.53,1074.93 L 1402.08,1050.69" style="fill:#04a1e6;fill-opacity:1;fill-rule:nonzero;stroke:none" id="path25"/><path d="M 1094.45,148.16 C 1132.66,252.547 1152.04,362.367 1152.04,474.574 C 1152.04,534.812 1146.35,595.086 1135.16,653.734 L 1195.19,665.191 C 1207.09,602.77 1213.13,538.641 1213.13,474.574 C 1213.13,355.184 1192.5,238.285 1151.84,127.148 L 1094.45,148.16" style="fill:#8d188f;fill-opacity:1;fill-rule:nonzero;stroke:none" id="path27"/><path d="M 1197.28,25.1797 C 1261.32,166.73 1293.79,317.938 1293.79,474.574 C 1293.79,511.82 1291.9,549.383 1288.17,586.195 L 1348.97,592.367 C 1352.92,553.512 1354.91,513.883 1354.91,474.574 C 1354.91,309.188 1320.6,149.52 1252.95,0 L 1197.28,25.1797" style="fill:#c02229;fill-opacity:1;fill-rule:nonzero;stroke:none" id="path29"/><path d="M 1212.76,888.059 C 1172.38,986.621 1117.74,1078.7 1050.34,1161.74 L 1097.78,1200.25 C 1168.95,1112.57 1226.65,1015.31 1269.3,911.227 L 1212.76,888.059" style="fill:#f68712;fill-opacity:1;fill-rule:nonzero;stroke:none" id="path31"/><path d="M 1675.52,397.777 C 1677.54,423.27 1678.95,449.145 1679.71,474.754 C 1683.72,611.355 1669.55,747.266 1637.54,878.77 L 1696.92,893.215 C 1730.2,756.41 1744.96,615.016 1740.8,472.953 C 1740,446.344 1738.54,419.43 1736.45,392.953 L 1675.52,397.777" style="fill:#80cc28;fill-opacity:1;fill-rule:nonzero;stroke:none" id="path33"/><path d="M 1878.34,512.895 L 1817.25,511.527 C 1817.51,499.398 1817.66,486.961 1817.66,474.574 C 1817.66,418.609 1814.82,362.164 1809.2,306.805 C 1804.22,257.613 1796.94,208.109 1787.54,159.711 L 1847.53,148.07 C 1857.26,198.289 1864.83,249.613 1870,300.641 C 1875.83,358.055 1878.76,416.566 1878.76,474.574 C 1878.76,487.406 1878.62,500.301 1878.34,512.895" style="fill:#2250a9;fill-opacity:1;fill-rule:nonzero;stroke:none" id="path35"/><path d="M 98.418,712.059 C 86.6562,699.645 72.0664,694.414 55.7383,694.414 C 39.625,694.414 25.6953,700.301 15.0195,710.969 C -0.21875,726.207 0,743.402 0,773.238 C 0,803.066 -0.21875,820.27 15.0195,835.508 C 25.6953,846.184 39.1953,852.059 55.7383,852.059 C 88.6133,852.059 107.781,830.504 112.129,803.938 L 88.3945,803.938 C 84.4766,820.926 73.1562,830.941 55.7383,830.941 C 46.5938,830.941 38.3164,827.23 32.8828,821.359 C 25.2539,813.082 23.5156,804.383 23.5156,773.238 C 23.5156,742.102 25.2539,733.18 32.8828,724.898 C 38.3164,719.02 46.5938,715.543 55.7383,715.543 C 65.9688,715.543 74.9023,719.461 81,726.426 C 86.6562,732.949 88.832,740.797 88.832,750.812 L 88.832,759.523 L 55.7383,759.523 L 55.7383,779.559 L 112.348,779.559 L 112.348,755.816 C 112.348,735.793 108.652,722.941 98.418,712.059" style="fill:#7b7979;fill-opacity:1;fill-rule:nonzero;stroke:none" id="path37"/><path d="M 226.879,780.199 C 221.871,785.215 217.953,787.609 210.328,787.609 C 198.355,787.609 188.344,778.027 188.344,762.785 L 188.344,695.73 L 166.129,695.73 L 166.129,806.117 L 187.906,806.117 L 187.906,794.145 C 193.57,801.98 204.895,807.43 217.297,807.43 C 227.969,807.43 236.023,804.598 243.648,796.973 L 226.879,780.199" style="fill:#7b7979;fill-opacity:1;fill-rule:nonzero;stroke:none" id="path39"/><path d="M 339.402,774.98 C 335.918,783.254 328.082,788.918 317.629,788.918 C 307.172,788.918 299.121,783.254 295.629,774.98 C 293.453,769.977 293.023,766.699 292.805,759.957 L 342.449,759.957 C 342.23,766.699 341.57,769.977 339.402,774.98 z M 292.805,744.496 C 292.805,725.559 302.816,713.586 320.898,713.586 C 333.312,713.586 339.836,717.062 347.672,724.898 L 361.832,711.621 C 350.508,700.301 339.836,694.414 320.453,694.414 C 292.805,694.414 270.805,709.012 270.805,751.031 C 270.805,786.738 289.324,807.43 317.629,807.43 C 347.242,807.43 364.438,785.648 364.438,754.293 L 364.438,744.496 L 292.805,744.496" style="fill:#7b7979;fill-opacity:1;fill-rule:nonzero;stroke:none" id="path41"/><path d="M 482.887,695.73 L 482.887,763.004 C 482.887,780.199 473.09,787.609 460.68,787.609 C 448.266,787.609 437.812,779.984 437.812,763.004 L 437.812,695.73 L 415.605,695.73 L 415.605,806.117 L 437.383,806.117 L 437.383,795.016 C 445,803.285 455.676,807.43 466.777,807.43 C 478.102,807.43 487.461,803.719 493.988,797.406 C 502.48,789.133 505.102,778.684 505.102,766.27 L 505.102,695.73 L 482.887,695.73" style="fill:#7b7979;fill-opacity:1;fill-rule:nonzero;stroke:none" id="path43"/><path d="M 618.102,781.297 C 613.965,785.43 608.305,787.609 601.773,787.609 C 595.234,787.609 589.801,785.43 585.66,781.297 C 578.906,774.547 578.035,763.004 578.035,751.031 C 578.035,739.059 578.906,727.516 585.66,720.758 C 589.801,716.621 595.234,714.234 601.773,714.234 C 608.305,714.234 613.965,716.621 618.102,720.758 C 624.848,727.516 625.727,739.059 625.727,751.031 C 625.727,763.004 624.848,774.547 618.102,781.297 z M 634.871,707.484 C 627.688,700.086 616.793,694.414 601.773,694.414 C 586.754,694.414 576.078,700.086 568.891,707.484 C 558.438,718.371 555.828,732.301 555.828,751.031 C 555.828,769.543 558.438,783.473 568.891,794.359 C 576.078,801.766 586.754,807.43 601.773,807.43 C 616.793,807.43 627.688,801.766 634.871,794.359 C 645.32,783.473 647.934,769.543 647.934,751.031 C 647.934,732.301 645.32,718.371 634.871,707.484" style="fill:#7b7979;fill-opacity:1;fill-rule:nonzero;stroke:none" id="path45"/><path d="M 745.043,787.609 C 725.016,787.609 721.969,770.625 721.969,751.031 C 721.969,731.434 725.016,714.234 745.043,714.234 C 765.078,714.234 767.91,731.434 767.91,751.031 C 767.91,770.625 765.078,787.609 745.043,787.609 z M 777.699,704.215 C 771.605,698.121 761.812,694.414 750.699,694.414 C 738.734,694.414 729.801,697.473 721.527,707.484 L 721.527,695.73 L 699.75,695.73 L 699.75,850.754 L 721.969,850.754 L 721.969,795.016 C 730.02,804.598 739.164,807.43 750.93,807.43 C 762.02,807.43 771.605,803.719 777.699,797.621 C 788.805,786.52 790.113,767.789 790.113,751.031 C 790.113,734.266 788.805,715.324 777.699,704.215" style="fill:#7b7979;fill-opacity:1;fill-rule:nonzero;stroke:none" id="path47"/><path d="M 871.555,695.73 C 850.426,695.73 841.285,709.879 841.285,726.207 L 841.285,850.754 L 863.484,850.754 L 863.484,727.516 C 863.484,719.02 866.539,714.664 875.473,714.664 L 885.266,714.664 L 885.266,695.73 L 871.555,695.73" style="fill:#7b7979;fill-opacity:1;fill-rule:nonzero;stroke:none" id="path49"/><path d="M 988.871,774.98 C 985.395,783.254 977.555,788.918 967.094,788.918 C 956.645,788.918 948.598,783.254 945.121,774.98 C 942.926,769.977 942.496,766.699 942.273,759.957 L 991.918,759.957 C 991.703,766.699 991.059,769.977 988.871,774.98 z M 942.273,744.496 C 942.273,725.559 952.289,713.586 970.375,713.586 C 982.777,713.586 989.301,717.062 997.145,724.898 L 1011.29,711.621 C 999.984,700.301 989.301,694.414 969.926,694.414 C 942.273,694.414 920.277,709.012 920.277,751.031 C 920.277,786.738 938.801,807.43 967.094,807.43 C 996.715,807.43 1013.91,785.648 1013.91,754.293 L 1013.91,744.496 L 942.273,744.496" style="fill:#7b7979;fill-opacity:1;fill-rule:nonzero;stroke:none" id="path51"/><path d="M 1137.15,695.73 L 1175.2633,695.73 L 1175.2633,850.753 L 1137.15,850.753 L 1137.15,695.73 z" style="fill:#8d188f;fill-opacity:1;fill-rule:nonzero;stroke:none" id="path53"/><path d="M 1316.12,695.73 L 1266.49,773.672 L 1266.49,695.73 L 1228.38,695.73 L 1228.38,850.754 L 1261.68,850.754 L 1311.33,772.805 L 1311.33,850.754 L 1349.44,850.754 L 1349.44,695.73 L 1316.12,695.73" style="fill:#8d188f;fill-opacity:1;fill-rule:nonzero;stroke:none" id="path55"/><path d="M 1462.23,816.574 L 1440.67,816.574 L 1440.67,785.215 L 1462.23,785.215 C 1472.68,785.215 1478.78,792.84 1478.78,800.891 C 1478.78,808.945 1472.68,816.574 1462.23,816.574 z M 1463.97,751.031 L 1440.67,751.031 L 1440.67,695.73 L 1402.56,695.73 L 1402.56,850.754 L 1463.97,850.754 C 1498.38,850.754 1516.89,826.363 1516.89,800.891 C 1516.89,775.418 1498.38,751.031 1463.97,751.031" style="fill:#8d188f;fill-opacity:1;fill-rule:nonzero;stroke:none" id="path57"/><path d="M 408.695,454.105 C 408.695,443.27 403.207,437.855 392.234,437.855 L 337.141,437.855 C 304.203,437.855 287.73,454.691 287.73,488.348 L 287.73,564.09 C 287.73,575.074 293.223,580.555 304.203,580.555 L 391.352,580.555 C 402.844,580.621 408.574,575.172 408.574,564.203 C 408.52,553.512 402.922,548.055 391.797,547.84 L 320.664,547.953 L 320.664,526.004 L 369.961,526.219 C 381.078,526.078 386.637,520.395 386.637,509.203 C 386.711,498.52 381.266,493.18 370.293,493.18 L 320.664,493.07 L 320.664,487.586 C 320.664,476.395 326.254,470.785 337.457,470.785 L 392.562,470.68 C 403.324,470.68 408.695,465.16 408.695,454.105" style="fill:#8d188f;fill-opacity:1;fill-rule:nonzero;stroke:none" id="path59"/><path d="M 524.379,547.621 L 480.367,547.621 C 469.164,547.621 463.574,543.895 463.574,536.434 C 463.574,529.398 469.195,525.887 480.473,525.887 L 491.117,525.887 C 523.906,525.379 540.258,510.73 540.18,481.98 C 540.039,452.777 523.688,438.148 491.117,438.07 L 446.66,438.18 C 436.055,438.109 430.703,443.16 430.641,453.324 C 430.703,464.742 436.008,470.492 446.547,470.57 L 490.906,470.57 C 501.801,470.57 507.324,474.305 507.465,481.766 C 507.465,489 502.066,492.711 491.227,492.855 L 480.586,492.855 C 447.441,492.711 430.895,507.445 430.969,537.086 C 430.746,566.062 447.102,580.555 480.043,580.555 L 523.941,580.445 C 534.922,580.445 540.414,575.023 540.414,564.203 C 540.18,553.363 534.844,547.84 524.379,547.621" style="fill:#8d188f;fill-opacity:1;fill-rule:nonzero;stroke:none" id="path61"/><path d="M 586.648,622.477 C 584.066,621.078 582.031,619.078 580.566,616.441 C 579.102,613.812 578.379,611.07 578.379,608.211 C 578.379,605.438 579.102,602.75 580.566,600.145 C 582.031,597.547 584.031,595.531 586.598,594.105 C 589.16,592.684 591.879,591.961 594.727,591.961 C 597.516,591.961 600.195,592.684 602.793,594.105 C 605.391,595.531 607.406,597.547 608.84,600.145 C 610.266,602.75 610.973,605.438 610.973,608.211 C 610.973,611.07 610.242,613.812 608.77,616.441 C 607.32,619.078 605.281,621.078 602.688,622.477 C 600.09,623.871 597.438,624.574 594.727,624.574 C 591.941,624.574 589.258,623.871 586.648,622.477 z M 595.82,438.07 C 584.703,438.07 579.137,443.641 579.137,454.754 L 579.137,547.621 C 568.012,547.621 562.527,552.918 562.676,563.543 C 562.676,574.652 568.164,580.34 579.137,580.555 L 595.609,580.77 C 606.582,580.555 612.078,575.023 612.078,564.203 L 612.078,454.754 C 612.078,443.641 606.656,438.07 595.82,438.07" style="fill:#8d188f;fill-opacity:1;fill-rule:nonzero;stroke:none" id="path63"/><path d="M 727.867,547.621 L 683.848,547.621 C 672.645,547.621 667.055,543.895 667.055,536.434 C 667.055,529.398 672.68,525.887 683.961,525.887 L 694.609,525.887 C 727.395,525.379 743.746,510.73 743.676,481.98 C 743.523,452.777 727.172,438.148 694.609,438.07 L 650.145,438.18 C 639.547,438.109 634.199,443.16 634.121,453.324 C 634.199,464.742 639.504,470.492 650.043,470.57 L 694.391,470.57 C 705.297,470.57 710.82,474.305 710.961,481.766 C 710.961,489 705.547,492.711 694.723,492.855 L 684.066,492.855 C 650.914,492.711 634.375,507.445 634.453,537.086 C 634.234,566.062 650.586,580.555 683.531,580.555 L 727.426,580.445 C 738.406,580.445 743.887,575.023 743.887,564.203 C 743.676,553.363 738.328,547.84 727.867,547.621" style="fill:#8d188f;fill-opacity:1;fill-rule:nonzero;stroke:none" id="path65"/><path d="M 853.539,515.023 L 853.539,547.621 L 815.676,547.621 C 804.473,547.621 798.871,541.98 798.871,530.719 L 798.871,515.023 L 853.539,515.023 z M 870.332,437.855 C 859.141,437.855 853.539,443.426 853.539,454.535 L 853.539,481.871 L 798.984,481.98 L 798.871,454.535 C 798.871,443.426 793.383,437.855 782.41,437.855 C 771.441,437.855 765.945,443.336 765.945,454.32 L 765.945,530.055 C 765.945,563.719 782.41,580.555 815.348,580.555 L 870,580.445 C 880.973,580.445 886.465,575.023 886.465,564.203 L 886.465,454.535 C 886.465,443.426 881.086,437.855 870.332,437.855" style="fill:#8d188f;fill-opacity:1;fill-rule:nonzero;stroke:none" id="path67"/><path d="M 1002.49,520.184 C 991.293,520.184 985.668,525.746 985.668,536.859 L 985.668,547.621 L 958.559,547.621 C 947.367,547.621 941.781,541.98 941.781,530.719 L 941.781,454.535 C 941.781,443.426 936.289,437.855 925.309,437.855 C 914.336,437.855 908.855,443.336 908.855,454.32 L 908.855,530.055 C 908.855,563.719 925.309,580.555 958.246,580.555 L 1002.15,580.445 C 1013.12,580.445 1018.61,575.023 1018.61,564.203 L 1018.61,536.859 C 1018.61,525.746 1013.25,520.184 1002.49,520.184" style="fill:#8d188f;fill-opacity:1;fill-rule:nonzero;stroke:none" id="path69"/></g></g></g></g></svg>